<?xml version="1.0" encoding="UTF-8" standalone="no"?>
<!-- Created with Inkscape (http://www.inkscape.org/) -->

<svg
   xmlns:dc="http://purl.org/dc/elements/1.1/"
   xmlns:cc="http://creativecommons.org/ns#"
   xmlns:rdf="http://www.w3.org/1999/02/22-rdf-syntax-ns#"
   xmlns:svg="http://www.w3.org/2000/svg"
   xmlns="http://www.w3.org/2000/svg"
   xmlns:sodipodi="http://sodipodi.sourceforge.net/DTD/sodipodi-0.dtd"
   xmlns:inkscape="http://www.inkscape.org/namespaces/inkscape"
   width="2000"
   height="2000"
   id="svg2"
   version="1.1"
   inkscape:version="0.48.1 r9760"
   sodipodi:docname="level0.svg">
  <defs
     id="defs4" />
  <sodipodi:namedview
     id="base"
     pagecolor="#ffffff"
     bordercolor="#666666"
     borderopacity="1.0"
     inkscape:pageopacity="0.0"
     inkscape:pageshadow="2"
     inkscape:zoom="0.015467961"
     inkscape:cx="-131.83969"
     inkscape:cy="-41517.986"
     inkscape:document-units="px"
     inkscape:current-layer="layer1"
     showgrid="false"
     inkscape:window-width="924"
     inkscape:window-height="647"
     inkscape:window-x="29"
     inkscape:window-y="0"
     inkscape:window-maximized="0"
     showguides="true"
     inkscape:guide-bbox="true" />
  <metadata
     id="metadata7">
    <rdf:RDF>
      <cc:Work
         rdf:about="">
        <dc:format>image/svg+xml</dc:format>
        <dc:type
           rdf:resource="http://purl.org/dc/dcmitype/StillImage" />
        <dc:title />
      </cc:Work>
    </rdf:RDF>
  </metadata>
  <g
     inkscape:label="Layer 1"
     inkscape:groupmode="layer"
     id="layer1"
     transform="translate(0,1000)">
    <rect
       style="fill:#000080;fill-opacity:1;stroke:#000000;stroke-width:0;stroke-miterlimit:4;stroke-opacity:1;stroke-dasharray:none"
       id="rect2987"
       width="94.285713"
       height="94.285713"
       x="774.28571"
       y="956.20923"
       kind="player"
       transform="translate(0,-1000)" />
    <path
       style="fill:none;stroke:#000000;stroke-width:1px;stroke-linecap:butt;stroke-linejoin:miter;stroke-opacity:1"
       d="m 274.28571,1634.2857 0,2057.1429 -4022.85711,0 0,1691.4285 -4388.5714,-548.5714 365.7142,2240 2605.7143,411.4286 -2102.8571,2422.8571 4937.1428,594.2856 -3520,5165.714 L -11382.857,14114.286 -9051.4286,7622.8571 -15177.143,9360 l 1508.572,7725.714 4617.1424,1508.572"
       id="path3006"
       inkscape:connector-curvature="0"
       transform="translate(0,-1000)" />
    <path
       style="fill:none;stroke:#000000;stroke-width:1px;stroke-linecap:butt;stroke-linejoin:miter;stroke-opacity:1"
       d="m 1828.5714,1771.4286 0,1828.5714 3017.1429,45.7143 L 5257.1428,1360 9188.5714,2548.5714 7040,8674.2857 2834.2857,6982.8571 l 1280,4205.7139 5988.5713,91.429 3382.857,-6080 4251.429,2240 -1280,6262.857 4708.571,2011.429 -3017.143,2560"
       id="path3008"
       inkscape:connector-curvature="0"
       transform="translate(0,-1000)" />
    <path
       style="fill:none;stroke:#000000;stroke-width:1px;stroke-linecap:butt;stroke-linejoin:miter;stroke-opacity:1"
       d="m -1051.4286,8537.1428 -777.1428,-1920 1874.285686,-502.8571"
       id="path3010"
       inkscape:connector-curvature="0"
       transform="translate(0,-1000)" />
    <path
       style="fill:none;stroke:#000000;stroke-width:1px;stroke-linecap:butt;stroke-linejoin:miter;stroke-opacity:1"
       d="M 960,12925.714 2560,12560 1782.8571,9817.1428 l 0,0 -1234.28567,228.5712"
       id="path3012"
       inkscape:connector-curvature="0"
       transform="translate(0,-1000)" />
    <path
       style="fill:none;stroke:#000000;stroke-width:1px;stroke-linecap:butt;stroke-linejoin:miter;stroke-opacity:1"
       d="M 5714.2857,13977.143 10880,13840 l 2925.714,-5165.7143 1645.715,731.4286 -1188.572,4571.4287"
       id="path3014"
       inkscape:connector-curvature="0"
       transform="translate(0,-1000)" />
    <path
       style="fill:none;stroke:#000000;stroke-width:1px;stroke-linecap:butt;stroke-linejoin:miter;stroke-opacity:1"
       d="m -2456.691,14865.303 5883.1284,-129.3 64.6498,4202.235 -6271.027,969.746 323.2488,3620.387 5883.1284,-64.65 646.4976,6271.027"
       id="path3016"
       inkscape:connector-curvature="0"
       transform="translate(0,-1000)" />
    <path
       style="fill:none;stroke:#000000;stroke-width:1px;stroke-linecap:butt;stroke-linejoin:miter;stroke-opacity:1"
       d="m 5753.8289,16740.146 5171.9811,-258.599 -193.949,3167.838 4719.432,-4008.285 -258.599,4719.433"
       id="path3018"
       inkscape:connector-curvature="0"
       transform="translate(0,-1000)" />
    <path
       style="fill:none;stroke:#000000;stroke-width:1px;stroke-linecap:butt;stroke-linejoin:miter;stroke-opacity:1"
       d="m -9050.9668,18550.339 -4978.0322,2909.24 -4008.285,-8210.52 -3943.635,3038.539 258.599,9891.413 3749.686,-1551.594 -711.147,-3943.636 -1357.645,-1551.594 -517.199,4396.184 1163.696,-1228.346 -323.249,-711.147 0,0 129.3,-517.198"
       id="path3020"
       inkscape:connector-curvature="0"
       transform="translate(0,-1000)" />
    <path
       style="fill:none;stroke:#000000;stroke-width:1px;stroke-linecap:butt;stroke-linejoin:miter;stroke-opacity:1"
       d="m -8404.4692,22170.726 2004.1427,-2844.59 2456.691,969.747 -2327.3915,5495.23 6077.07771,840.447 -2262.74171,3361.787 -8857.017,-3232.488 -1939.493,1616.244 -4913.382,-711.147 6271.027,-5042.682 z"
       id="path3022"
       inkscape:connector-curvature="0"
       transform="translate(0,-1000)" />
    <path
       style="fill:none;stroke:#000000;stroke-width:1px;stroke-linecap:butt;stroke-linejoin:miter;stroke-opacity:1"
       d="m 6335.6767,20619.132 1422.2948,-1099.046 3943.6355,4137.585 1099.046,-3103.189"
       id="path3024"
       inkscape:connector-curvature="0"
       transform="translate(0,-1000)" />
    <path
       style="fill:none;stroke:#000000;stroke-width:1px;stroke-linecap:butt;stroke-linejoin:miter;stroke-opacity:1"
       d="m 7176.1237,27730.606 -2068.7924,-5236.631 3232.4881,129.299 4008.2856,5042.682 2973.889,-4266.885"
       id="path3026"
       inkscape:connector-curvature="0"
       transform="translate(0,-1000)" />
    <path
       style="fill:none;stroke:#000000;stroke-width:1px;stroke-linecap:butt;stroke-linejoin:miter;stroke-opacity:1"
       d="m 18166.583,18227.09 517.198,6982.175 -2650.64,4590.133 -5753.829,0 -581.8476,1099.046"
       id="path3028"
       inkscape:connector-curvature="0"
       transform="translate(0,-1000)" />
    <path
       style="fill:none;stroke:#000000;stroke-width:1px;stroke-linecap:butt;stroke-linejoin:miter;stroke-opacity:1"
       d="m -21942.857,20194.286 -4205.714,914.285 0,9142.857 4845.714,2468.572 4388.571,-1005.714 182.857,-3840"
       id="path3030"
       inkscape:connector-curvature="0"
       transform="translate(0,-1000)" />
    <path
       style="fill:none;stroke:#000000;stroke-width:1px;stroke-linecap:butt;stroke-linejoin:miter;stroke-opacity:1"
       d="m -7771.4286,27874.286 -7497.1424,5851.428 -2834.286,182.857 -914.286,-1645.714"
       id="path3032"
       inkscape:connector-curvature="0"
       transform="translate(0,-1000)" />
    <path
       style="fill:none;stroke:#000000;stroke-width:1px;stroke-linecap:butt;stroke-linejoin:miter;stroke-opacity:1"
       d="M -14628.571,33268.571 -12617.143,35280 914.28571,35188.571 6857.1428,33177.143 9051.4285,34731.428 2377.1429,38114.286 -21120,36102.857"
       id="path3034"
       inkscape:connector-curvature="0"
       transform="translate(0,-1000)" />
    <path
       style="fill:none;stroke:#000000;stroke-width:1px;stroke-linecap:butt;stroke-linejoin:miter;stroke-opacity:1"
       d="m 9782.8571,31074.286 5485.7139,1462.857 2560,2377.143 -2102.857,1371.428 -2011.428,1828.572 -2742.857,182.857 L -91.428571,41954.286 -21302.857,39851.428 l 365.714,-3748.571"
       id="path3036"
       inkscape:connector-curvature="0"
       transform="translate(0,-1000)" />
    <rect
       kind="exit"
       y="-38168.199"
       x="1546.8893"
       height="914.28571"
       width="914.28589"
       id="rect3038"
       style="fill:#000080;fill-opacity:1;stroke:#000000;stroke-width:0;stroke-miterlimit:4;stroke-opacity:1;stroke-dasharray:none" />
    <path
       style="fill:none;stroke:#000000;stroke-width:1px;stroke-linecap:butt;stroke-linejoin:miter;stroke-opacity:1"
       d="m -5753.8289,37428.07 -517.1981,3814.336"
       id="path3002"
       inkscape:connector-curvature="0"
       transform="translate(0,-1000)" />
  </g>
</svg>
